<?xml version="1.0" encoding="UTF-8"?>
<svg xmlns="http://www.w3.org/2000/svg" id="Layout" version="1.1" viewBox="0 0 186 20">
  <defs>
    <style>
      .st0 {
        fill: #fff;
      }
    </style>
  </defs>
  <path class="st0" d="M24,.5v19h-3.8V4.5h-.1l-6.3,15h-3.2L4.2,4.2h-.1v15.3H.4V.5h6.1l5.6,13.8h.1L17.8.5h6.2Z"></path>
  <path class="st0" d="M44.9,19.5l-1.9-4h-10.6l-1.9,4h-4.2L35.6.5h4.1l9.4,19s-4.2,0-4.2,0ZM37.6,4.4c-1,2.2-2.2,4.9-3.7,8h7.6c-.7-1.4-1.3-2.8-1.9-4.1-.6-1.3-1.1-2.3-1.4-2.9l-.4-.9s-.1,0-.1,0Z"></path>
  <path class="st0" d="M66.6,11.7l4.8,7.8h-4.4l-4.5-7.4h-7.4v7.4h-3.8V.5h13c2.3,0,4,.5,5.1,1.4,1.1.9,1.6,2.4,1.6,4.4,0,3-1.5,4.7-4.4,5.3,0,0,0,.1,0,.1ZM63.9,8.9c1,0,1.8-.2,2.2-.6.5-.4.7-1,.7-1.9s-.2-1.5-.7-1.9c-.5-.4-1.2-.6-2.2-.6h-8.7v5.1s8.7,0,8.7,0Z"></path>
  <path class="st0" d="M85.7,7.1l8.8,12.4h-4.7l-6.9-9.9-4.8,4.2v5.7h-3.8V.5h3.8v9L88.2.5h5.1l-7.5,6.6Z"></path>
  <path class="st0" d="M110,6.3c0-.6-.2-1.2-.5-1.6-.3-.4-.7-.8-1.2-1-.5-.2-1.1-.4-1.7-.5-.6,0-1.3-.1-2.1-.1-1.5,0-2.6.2-3.5.6-.8.4-1.2,1-1.2,1.9s.2,1.2.7,1.5c.5.3,1.1.5,2,.6l6.8.8c.8.1,1.6.3,2.2.5.6.2,1.2.5,1.7.9.5.4.9,1,1.2,1.6.3.7.4,1.5.4,2.4s-.2,1.7-.5,2.4c-.3.7-.8,1.3-1.3,1.7-.6.5-1.3.8-2.1,1.1-.8.3-1.8.5-2.8.6-1,.1-2.1.2-3.3.2s-2.2,0-3.2-.2c-.9-.1-1.8-.4-2.7-.7-.8-.3-1.6-.7-2.1-1.3-.6-.5-1-1.2-1.4-2-.3-.8-.5-1.7-.6-2.8h4.2c0,.6.1,1.1.4,1.6.2.5.5.8.8,1.1.3.3.8.5,1.3.7s1,.3,1.6.4c.5,0,1.1,0,1.8,0,1.7,0,3.1-.2,4.1-.7,1-.5,1.5-1.2,1.5-2.1,0-.4,0-.8-.2-1.1-.1-.3-.4-.5-.6-.7-.3-.2-.6-.3-.9-.4-.3,0-.7-.2-1.2-.2l-6.4-.8c-.8-.1-1.6-.3-2.2-.5-.6-.2-1.2-.5-1.7-.9-.5-.4-.9-.9-1.2-1.5-.3-.6-.4-1.4-.4-2.2s.2-1.9.7-2.6c.5-.7,1.1-1.3,1.9-1.8.8-.5,1.8-.8,2.9-1C102.1.1,103.3,0,104.6,0s2.1,0,3,.2c.9.1,1.8.3,2.6.6.8.3,1.5.7,2.1,1.2.6.5,1,1.1,1.4,1.8.3.7.5,1.6.6,2.5h-4.2,0Z"></path>
  <path class="st0" d="M133.8,7.5c0-1.2-.7-2.2-1.7-3-1-.8-2.5-1.2-4.3-1.2s-1.8.1-2.6.4c-.8.3-1.5.7-2.1,1.2-.6.5-1.1,1.3-1.4,2.1-.3.9-.5,1.9-.5,3s.2,2.1.5,3c.3.9.8,1.6,1.4,2.1.6.5,1.3,1,2.1,1.2.8.3,1.7.4,2.6.4,1.9,0,3.4-.4,4.4-1.3,1-.8,1.6-2,1.6-3.4h4.5c0,1.6-.5,3-1.4,4.2-.9,1.2-2.1,2.1-3.7,2.7-1.6.6-3.4.9-5.5.9s-3-.2-4.3-.6c-1.3-.4-2.5-1-3.4-1.8-1-.8-1.8-1.9-2.3-3.1-.6-1.3-.8-2.8-.8-4.4s.3-3.1.8-4.4c.6-1.3,1.3-2.3,2.3-3.1,1-.8,2.1-1.4,3.4-1.8C124.8.2,126.3,0,127.8,0,130.9,0,133.4.7,135.3,2c1.9,1.4,2.9,3.2,3,5.4,0,0-4.4,0-4.4,0Z"></path>
  <path class="st0" d="M147.2.6c1.4-.4,2.8-.6,4.5-.6s3.1.2,4.5.6c1.4.4,2.5,1,3.5,1.8,1,.8,1.8,1.9,2.4,3.1.6,1.3.9,2.8.9,4.4s-.3,3.1-.9,4.4c-.6,1.3-1.4,2.3-2.4,3.1-1,.8-2.2,1.4-3.5,1.8-1.4.4-2.8.6-4.5.6s-3.1-.2-4.5-.6c-1.4-.4-2.5-1-3.5-1.8-1-.8-1.8-1.9-2.4-3.1-.6-1.3-.8-2.8-.8-4.4s.3-3.1.8-4.4c.6-1.3,1.4-2.3,2.4-3.1,1-.8,2.2-1.4,3.5-1.8ZM151.7,16.7c1,0,2-.1,2.8-.4.9-.3,1.6-.7,2.2-1.2.6-.5,1.1-1.3,1.5-2.1.3-.9.5-1.9.5-3s-.3-2.7-.9-3.8c-.6-1-1.4-1.8-2.5-2.3-1-.5-2.3-.7-3.6-.7s-2,.1-2.8.4c-.8.3-1.6.7-2.2,1.2-.6.5-1.1,1.3-1.5,2.1-.3.9-.5,1.9-.5,3s.3,2.7.9,3.7c.6,1,1.4,1.8,2.5,2.3,1,.5,2.3.7,3.6.7h0Z"></path>
  <path class="st0" d="M181.9.5h3.7v19h-4.2l-11.7-13.9h-.1v13.9h-3.6V.5h4.3l11.5,13.7h.1V.5h0Z"></path>
</svg>
