<?xml version="1.0" encoding="UTF-8"?>
<svg xmlns="http://www.w3.org/2000/svg" id="Layout" viewBox="0 0 186 20">
  <path d="M24.019649.506482v18.987036h-3.831241V4.493518h-.116847l-6.272672,15h-3.207767L4.188525,4.23381h-.116992v15.259708H.396233V.506482h6.14289l5.597314,13.831241h.116992L17.824875.506482h6.194774Z" style="fill:red;"></path>
  <path d="M44.863737,19.493518l-1.935095-4.025985h-10.58438l-1.935095,4.025985h-4.155767L35.643007.506482h4.077869l9.389606,18.987036h-4.246745ZM37.578101,4.376671c-.995814,2.207737-2.242617,4.865859-3.740263,7.974073h7.597372c-.675358-1.402599-1.324701-2.768283-1.948029-4.097489-.623474-1.328915-1.077927-2.30947-1.36365-2.941518l-.428584-.935066h-.116847Z" style="fill:red;"></path>
  <path d="M66.629956,11.675387l4.831124,7.818132h-4.40254l-4.506453-7.441577h-7.376613v7.441577h-3.831241V.506482h13.013022c2.328944,0,4.02802.456778,5.097372,1.37019,1.069207.913557,1.603883,2.365859,1.603883,4.357197,0,2.960993-1.476282,4.731717-4.428555,5.311592v.129927ZM63.889722,8.85711c1.012964,0,1.755319-.203319,2.227212-.610394.471893-.406784.707767-1.047407.707767-1.922015,0-.874317-.235874-1.51494-.707767-1.922015-.471893-.406929-1.214248-.610394-2.227212-.610394h-8.714248v5.064818h8.714248Z" style="fill:red;"></path>
  <path d="M85.720905,7.077956l8.792146,12.415562h-4.727212l-6.948029-9.922102-4.81819,4.181781v5.740321h-3.831241V.506482h3.831241v9.039065L88.18835.506482h5.077898l-7.545344,6.571474Z" style="fill:red;"></path>
  <path d="M110.019533,6.259737c-.026014-.623329-.184136-1.155825-.474073-1.597343-.290083-.441518-.692797-.77927-1.207708-1.012964-.515202-.233839-1.075892-.400389-1.681927-.500087-.606034-.099407-1.298686-.149256-2.077811-.149256-1.489362,0-2.649401.205645-3.480555.616789-.831153.411435-1.246803,1.041303-1.246803,1.889606,0,.692797.227299,1.192885.681897,1.499971.454453.307522,1.13635.517527,2.045402.629869l6.766219.805284c.831153.103912,1.560429.266248,2.188263.487007.627689.220759,1.201314.536856,1.720875.948.519416.411289.917626.95454,1.194774,1.629898.277003.675358.415649,1.476282.415649,2.402628,0,.900477-.158121,1.697041-.474073,2.389548-.316242.692797-.759795,1.270782-1.331241,1.73381-.571445.463318-1.277177.842053-2.11676,1.13635-.840019.294443-1.75779.506482-2.753314.636409-.995669.129781-2.103825.194745-3.324613.194745-1.177625,0-2.240292-.064963-3.188292-.194745-.948146-.129927-1.846442-.357226-2.69489-.681897-.848593-.324672-1.56072-.744536-2.136379-1.259737-.575805-.515056-1.034618-1.173119-1.376584-1.974044-.342111-.800634-.525956-1.729305-.551971-2.785723h4.207796c.026014.60618.147076,1.138676.363621,1.597489.216399.458958.493547.831153.831153,1.116876.337751.285723.757615.517382,1.259737.694832s1.023718.298657,1.564934.363621c.541071.064963,1.14943.097372,1.824642.097372,1.73163,0,3.08656-.238054,4.064934-.714306.978375-.476107,1.463202-1.173119,1.454627-2.090891-.00872-.432799-.084438-.800779-.227299-1.103941-.142861-.302872-.359406-.545431-.649343-.727241-.290228-.18181-.603854-.322492-.941606-.422044-.337606-.099407-.748895-.17963-1.233723-.240234l-6.402599-.818219c-.831153-.103912-1.5629-.266248-2.194803-.487007-.632049-.220759-1.203494-.523776-1.71419-.909051-.510987-.38513-.900622-.889722-1.168905-1.513051-.268428-.623329-.402569-1.35493-.402569-2.194803,0-1.012964.224974-1.89382.675358-2.642861.450093-.74875,1.088682-1.34839,1.915475-1.798628.826793-.450093,1.779299-.781304,2.857226-.993489,1.077927-.212039,2.292175-.318277,3.642745-.318277,1.082287,0,2.075776.062929,2.980613.18835.904546.125567,1.766219.339931,2.584438.642803.818073.303162,1.512905.688292,2.084351,1.155825.571445.467533,1.030258,1.062958,1.376584,1.785839.346181.723026.532496,1.551854.558511,2.48692h-4.207796Z" style="fill:red;"></path>
  <path d="M133.811679,7.493605c-.095338-1.220788-.655883-2.233897-1.681781-3.039036-1.026043-.805139-2.469771-1.207708-4.331182-1.207708-.952506,0-1.831182.140827-2.636467.422044-.805139.281363-1.510871.697012-2.11676,1.246657-.60618.549936-1.080252,1.257703-1.422073,2.123445-.342111.865888-.513022,1.852837-.513022,2.960993,0,1.108447.17091,2.095396.513022,2.960993.341821.865888.815894,1.571474,1.422073,2.116905.605889.545431,1.311621.959045,2.11676,1.240263.805284.281508,1.683961.422044,2.636467.422044,1.904575,0,3.367922-.422044,4.389606-1.266132,1.021538-.844233,1.566969-1.967504,1.636292-3.370102h4.467504c-.043309,1.618998-.502122,3.025956-1.376584,4.22073-.874608,1.194774-2.093071,2.10615-3.655825,2.733694-1.5629.627689-3.383182.941606-5.460993.941606-1.532525,0-2.950384-.207825-4.253285-.623329-1.303191-.415649-2.450296-1.026043-3.441606-1.831182-.991454-.805284-1.768399-1.852692-2.331124-3.142803-.562871-1.290112-.844088-2.757528-.844088-4.402686,0-1.644867.281217-3.112429.844088-4.40254.562725-1.289966,1.33967-2.337664,2.331124-3.142948.991309-.805139,2.138414-1.415533,3.441606-1.831037,1.302901-.415649,2.720759-.623474,4.253285-.623474,3.108069,0,5.595134.681897,7.461051,2.045547,1.865626,1.36365,2.859115,3.179717,2.980467,5.448058h-4.428555Z" style="fill:red;"></path>
  <path d="M147.240205.623474c1.350715-.415649,2.835426-.623474,4.454569-.623474,1.618998,0,3.103854.207825,4.454569.623474,1.35057.415504,2.532409,1.028078,3.545373,1.837577,1.013109.809644,1.802988,1.857197,2.370219,3.142948.56694,1.285606.850628,2.751134.850628,4.396,0,1.645158-.283688,3.110394-.850628,4.396146-.567231,1.285752-1.35711,2.333304-2.370219,3.142803-1.012964.809644-2.194803,1.422073-3.545373,1.837722-1.350715.415504-2.835571.623329-4.454569.623329-1.619143,0-3.103854-.207825-4.454569-.623329-1.35057-.415649-2.532409-1.028078-3.545373-1.837722-1.012964-.809499-1.800953-1.857052-2.363679-3.142803-.562871-1.285752-.844088-2.750988-.844088-4.396146,0-1.644867.281217-3.110394.844088-4.396.562725-1.285752,1.350715-2.333304,2.363679-3.142948,1.012964-.809499,2.194803-1.422073,3.545373-1.837577ZM151.694774,16.740205c1.038978,0,1.984798-.140536,2.837751-.422044.852662-.281217,1.592838-.694832,2.220672-1.240263.627689-.545431,1.114696-1.251017,1.461022-2.116905.346181-.865597.519562-1.852546.519562-2.960993,0-1.471777-.305197-2.722794-.915591-3.753197-.610394-1.030258-1.435153-1.787728-2.473986-2.272701-1.038978-.484827-2.255552-.727241-3.64943-.727241-1.038978,0-1.982764.140827-2.831211.422044-.848593.281363-1.586589.697012-2.214277,1.246657-.627834.549936-1.114841,1.257703-1.461022,2.123445-.346326.865888-.519416,1.852837-.519416,2.960993,0,1.472067.303017,2.720759.909051,3.746803.605889,1.025898,1.428613,1.781479,2.467591,2.266161,1.038978.484973,2.255261.727241,3.649285.727241Z" style="fill:red;"></path>
  <path d="M181.941402.506482h3.662365v18.987036h-4.155767l-11.688321-13.922073h-.116847v13.922073h-3.64943V.506482h4.324642l11.506511,13.701314h.116847V.506482Z" style="fill:red;"></path>
</svg>
