<?xml version="1.0" encoding="UTF-8"?>
<svg xmlns="http://www.w3.org/2000/svg" id="Layout" viewBox="0 0 196 22">
  <path d="M25.340576,1v20h-4.035156V5.200195h-.123047l-6.607422,15.799805h-3.378906L4.451904,4.926758h-.123047v16.073242H.457275V1h6.470703l5.895996,14.569336h.123047L18.815674,1h6.524902Z" style="fill:#fff;"></path>
  <path d="M47.296631,21l-2.038086-4.240234h-11.148926l-2.038574,4.240234h-4.377441L37.584229,1h4.29541l9.890137,20h-4.473145ZM39.622314,5.077148c-1.048828,2.325195-2.361816,5.125-3.939453,8.399414h8.002441c-.711426-1.477539-1.395508-2.916016-2.051758-4.316406-.656738-1.399414-1.135742-2.432617-1.436523-3.098633l-.45166-.984375h-.123047Z" style="fill:#fff;"></path>
  <path d="M70.223389,12.764648l5.088867,8.235352h-4.637207l-4.74707-7.838867h-7.77002v7.838867h-4.035645V1h13.707031c2.453125,0,4.243164.481445,5.369629,1.443359,1.125977.962891,1.689453,2.492188,1.689453,4.589844,0,3.119141-1.555176,4.984375-4.665039,5.594727v.136719ZM67.337158,9.795898c1.066895,0,1.848633-.213867,2.346191-.642578.496582-.428711.745117-1.103516.745117-2.024414s-.248535-1.595703-.745117-2.024414c-.497559-.428711-1.279297-.643555-2.346191-.643555h-9.179199v5.334961h9.179199Z" style="fill:#fff;"></path>
  <path d="M90.332764,7.921875l9.260742,13.078125h-4.979004l-7.318848-10.451172-5.075195,4.404297v6.046875h-4.035645V1h4.035645v9.521484l10.711426-9.521484h5.348633l-7.947754,6.921875Z" style="fill:#fff;"></path>
  <path d="M115.927002,7.060547c-.027344-.65625-.193848-1.217773-.499023-1.682617-.305664-.464844-.72998-.821289-1.272461-1.067383s-1.133301-.421875-1.771484-.526367c-.638672-.104492-1.368164-.157227-2.188965-.157227-1.568359,0-2.790527.216797-3.666016.649414-.875488.433594-1.312988,1.09668-1.312988,1.990234,0,.730469.239258,1.256836.718262,1.580078.478516.324219,1.196777.544922,2.154297.664062l7.126953.847656c.875488.109375,1.644043.280273,2.305176.513672.661133.232422,1.265137.56543,1.8125.998047.547363.433594.966797,1.005859,1.258789,1.716797.291504.711914.4375,1.554688.4375,2.53125,0,.948242-.166504,1.787109-.499023,2.516602-.333496.729492-.800293,1.338867-1.402344,1.826172-.602051.488281-1.345215.886719-2.22998,1.197266-.884766.30957-1.851074.533203-2.899902.669922s-2.216309.205078-3.501953.205078c-1.240234,0-2.359863-.068359-3.358398-.205078s-1.944824-.375977-2.838379-.717773c-.894043-.341797-1.644043-.78418-2.250488-1.327148s-1.089844-1.235352-1.450195-2.079102-.553711-1.821289-.581055-2.93457h4.432129c.027344.638672.154785,1.199219.382812,1.682617s.52002.875977.875488,1.176758c.355957.300781.797852.544922,1.327148.731445.528809.1875,1.078125.314453,1.648438.382812.569824.068359,1.210449.102539,1.921875.102539,1.82373,0,3.250977-.25,4.281738-.751953,1.030273-.500977,1.541016-1.235352,1.532227-2.202148-.009277-.456055-.088867-.84375-.239746-1.163086-.150391-.319336-.378418-.574219-.683594-.765625-.305664-.191406-.63623-.339844-.991699-.445312-.355957-.104492-.789062-.188477-1.299805-.25293l-6.744141-.861328c-.875488-.109375-1.645996-.280273-2.312012-.513672-.665527-.232422-1.267578-.550781-1.805664-.957031s-.948242-.9375-1.230957-1.59375-.424316-1.426758-.424316-2.311523c0-1.067383.237305-1.995117.711426-2.78418s1.146973-1.419922,2.018066-1.894531c.870605-.474609,1.874023-.823242,3.009277-1.046875,1.135254-.222656,2.414551-.334961,3.837402-.334961,1.139648,0,2.186035.066406,3.13916.198242.953125.132812,1.860352.358398,2.722168.677734s1.59375.724609,2.195801,1.216797c.602051.493164,1.084961,1.120117,1.450195,1.880859.364258.761719.560547,1.634766.587891,2.620117h-4.432129Z" style="fill:#fff;"></path>
  <path d="M140.988525,8.360352c-.100586-1.286133-.690918-2.353516-1.771484-3.201172-1.080566-.848633-2.601562-1.272461-4.562012-1.272461-1.003418,0-1.929199.148438-2.777344.444336-.848145.296875-1.591309.734375-2.229492,1.313477-.638672.579102-1.137695,1.325195-1.498047,2.236328-.360352.912109-.540527,1.952148-.540527,3.119141,0,1.167969.180176,2.207031.540527,3.119141s.859375,1.655273,1.498047,2.229492c.638184.575195,1.381348,1.010742,2.229492,1.306641.848145.296875,1.773926.444336,2.777344.444336,2.005859,0,3.547363-.444336,4.623535-1.333008,1.076172-.889648,1.650391-2.073242,1.723633-3.550781h4.706055c-.045898,1.706055-.529297,3.1875-1.450195,4.446289-.921387,1.258789-2.205078,2.21875-3.851074,2.879883s-3.563477.991211-5.751953.991211c-1.614258,0-3.10791-.21875-4.480469-.65625s-2.580566-1.081055-3.625-1.928711c-1.044434-.848633-1.862793-1.952148-2.455566-3.310547s-.88916-2.904297-.88916-4.637695c0-1.732422.296387-3.27832.88916-4.637695.592773-1.358398,1.411133-2.461914,2.455566-3.30957,1.044434-.848633,2.252441-1.491211,3.625-1.929688,1.372559-.4375,2.866211-.65625,4.480469-.65625,3.273926,0,5.893555.717773,7.858887,2.154297,1.964844,1.436523,3.011719,3.349609,3.13916,5.739258h-4.664551Z" style="fill:#fff;"></path>
  <path d="M155.133545,1.123047c1.422363-.4375,2.986328-.65625,4.691895-.65625,1.705078,0,3.269531.21875,4.692383.65625,1.422363.438477,2.66748,1.083008,3.734375,1.936523,1.066895.852539,1.898926,1.956055,2.496582,3.30957.597168,1.354492.895996,2.898438.895996,4.630859,0,1.733398-.298828,3.276367-.895996,4.630859-.597656,1.354492-1.429688,2.458008-2.496582,3.310547s-2.312012,1.498047-3.734375,1.935547c-1.422852.4375-2.987305.65625-4.692383.65625-1.705566,0-3.269531-.21875-4.691895-.65625-1.422852-.4375-2.66748-1.083008-3.734863-1.935547-1.066895-.852539-1.896973-1.956055-2.489746-3.310547s-.88916-2.897461-.88916-4.630859c0-1.732422.296387-3.276367.88916-4.630859.592773-1.353516,1.422852-2.457031,2.489746-3.30957,1.067383-.853516,2.312012-1.498047,3.734863-1.936523ZM159.825439,18.099609c1.094238,0,2.09082-.147461,2.989258-.444336.897949-.295898,1.677734-.731445,2.338867-1.306641.661133-.574219,1.174316-1.317383,1.539062-2.229492s.547363-1.951172.547363-3.119141c0-1.549805-.321777-2.868164-.964355-3.953125-.643066-1.084961-1.511719-1.882812-2.605957-2.394531-1.094727-.509766-2.375977-.765625-3.844238-.765625-1.094238,0-2.088379.148438-2.981934.444336-.894043.296875-1.671387.734375-2.33252,1.313477s-1.174316,1.325195-1.539062,2.236328c-.364746.912109-.547363,1.952148-.547363,3.119141,0,1.550781.319336,2.866211.958008,3.946289.638184,1.081055,1.504395,1.876953,2.599121,2.387695,1.094238.510742,2.375488.765625,3.84375.765625Z" style="fill:#fff;"></path>
  <path d="M191.685303,1h3.857422v20h-4.377441l-12.311523-14.665039h-.123047v14.665039h-3.844238V1h4.555664l12.120117,14.432617h.123047V1Z" style="fill:#fff;"></path>
</svg>
