<?xml version="1.0" encoding="UTF-8"?>
<svg xmlns="http://www.w3.org/2000/svg" xmlns:xlink="http://www.w3.org/1999/xlink" id="Layout" viewBox="0 0 1128 122">
  <defs>
    <clipPath id="clippath">
      <rect x="-1654.623592" y="-213.559283" width="1200" height="190" style="fill:#212427;"></rect>
    </clipPath>
  </defs>
  <rect x="-1654.623592" y="-213.559283" width="1200" height="190" style="fill:#212427;"></rect>
  <g style="clip-path:url(#clippath);">
    <polyline points="591.947354 75.894171 -813.575004 75.678837 -62.566404 -1691.185831 591.394253 -1691.185831" style="fill:red;"></polyline>
  </g>
  <path d="M143.877587,3.18006v115.63988h-23.334036V27.462965h-.711652l-38.203488,91.356975h-19.53679L23.096819,25.881222h-.712537v92.938718H0V3.18006h37.413059l34.090247,84.238686h.712537L106.148534,3.18006h37.729053Z" style="fill:#212427;"></path>
  <path d="M270.827775,118.81994l-11.785627-24.520123h-64.463794l-11.785627,24.520123h-25.310552L214.66924,3.18006h24.836117l57.187066,115.63988h-25.864649ZM226.454867,26.751314c-6.064973,13.446148-13.658581,29.635342-22.779939,48.565811h46.271531c-4.113241-8.542477-8.068043-16.860129-11.864404-24.955611-3.797247-8.093712-6.565077-14.065745-8.30526-17.915215l-2.610275-5.694985h-.711652Z" style="fill:#212427;"></path>
  <path d="M403.394169,71.203883l29.423793,47.616057h-26.813518l-27.446393-45.322661h-44.927004v45.322661h-23.334036V3.18006h79.255353c14.184354,0,24.532515,2.781992,31.045368,8.345091,6.511968,5.563984,9.768395,14.409179,9.768395,26.537355,0,18.033824-8.991243,28.818358-26.971958,32.350063v.791314ZM386.704872,54.039266c6.169419,0,10.69071-1.23831,13.564756-3.717584,2.874047-2.477504,4.310627-6.379197,4.310627-11.705964,0-5.324997-1.436581-9.22669-4.310627-11.705964-2.874047-2.478389-7.395337-3.717584-13.564756-3.717584h-53.073824v30.847097h53.073824Z" style="fill:#212427;"></path>
  <path d="M519.666924,43.203394l53.548259,75.616546h-28.790919l-42.316729-60.430215-29.345016,25.468992v34.961223h-23.334036V3.18006h23.334036v55.05211l61.932296-55.05211h30.926759l-45.954651,40.023334Z" style="fill:#212427;"></path>
  <path d="M667.656867,38.220061c-.15844-3.796362-1.121471-7.039511-2.887324-9.728564-1.766738-2.689053-4.219458-4.746116-7.355506-6.169419-3.137818-1.424189-6.552685-2.438558-10.243715-3.045764-3.69103-.605435-7.909603-.909038-12.654833-.909038-9.070905,0-16.136085,1.252472-21.198196,3.75653-5.06211,2.505829-7.593608,6.342022-7.593608,11.508578,0,4.219458,1.384358,7.265222,4.153073,9.13552,2.76783,1.872954,6.920902,3.15198,12.457447,3.836193l41.20942,4.904556c5.06211.632874,9.503738,1.621575,13.327539,2.966101,3.822916,1.344526,7.31656,3.269704,10.480932,5.773762,3.163487,2.504944,5.588768,5.813593,7.276728,9.926835,1.687075,4.113241,2.531498,8.991243,2.531498,14.633119,0,5.484322-.963031,10.335769-2.887324,14.553457-1.926063,4.219458-4.627507,7.739656-8.107874,10.559709-3.480367,2.821823-7.778602,5.128496-12.892051,6.920902-5.116104,1.793292-10.705757,3.08471-16.76896,3.876024-6.064088.790429-12.813273,1.186086-20.248442,1.186086-7.172282,0-13.644419-.395657-19.418181-1.186086-5.774647-.791314-11.245692-2.175672-16.413134-4.153073-5.168327-1.977401-9.505509-4.534568-13.011544-7.672386-3.506921-3.136933-6.301305-7.144843-8.384037-12.022844-2.083617-4.876231-3.203318-10.53227-3.361758-16.966346h25.627432c.15844,3.691915.895761,6.935065,2.214618,9.729449,1.317972,2.795269,3.005932,5.06211,5.06211,6.802294,2.057063,1.740183,4.61423,3.151095,7.672386,4.23185,3.058156,1.080755,6.23492,1.818961,9.531178,2.214618,3.295373.395657,7.000565.593043,11.112921.593043,10.546432,0,18.798584-1.449858,24.75734-4.350459,5.958756-2.899716,8.91158-7.144843,8.859357-12.734496-.053108-2.635944-.514266-4.877116-1.384358-6.723516-.870092-1.84463-2.188949-3.321927-3.954801-4.429236-1.767623-1.107309-3.677753-1.964124-5.734816-2.570444-2.056178-.605435-4.561122-1.094032-7.513946-1.463135l-38.994802-4.983333c-5.06211-.632874-9.518786-1.621575-13.36737-2.966101-3.84947-1.344526-7.329837-3.190041-10.440215-5.536545-3.112149-2.345619-5.485207-5.418821-7.119174-9.215183-1.634852-3.796362-2.451835-8.252152-2.451835-13.36737,0-6.169419,1.370195-11.534247,4.113241-16.096254,2.741276-4.560237,6.630577-8.21232,11.666133-10.954481,5.035556-2.741276,10.836758-4.758508,17.401834-6.050811,6.565077-1.291418,13.960414-1.938455,22.186011-1.938455,6.591631,0,12.642441.383265,18.153317,1.14714,5.509106.76476,10.757095,2.07034,15.740428,3.91497,4.982448,1.8464,9.214298,4.192019,12.694665,7.039511,3.480367,2.847492,6.274751,6.473907,8.384037,10.876589,2.108401,4.403567,3.24315,9.451515,3.401589,15.1465h-25.627432Z" style="fill:#212427;"></path>
  <path d="M812.562101,45.734891c-.580651-7.435168-3.994633-13.605473-10.242829-18.509143-6.249082-4.903671-15.042054-7.355506-26.378915-7.355506-5.801202,0-11.152752.8577-16.057308,2.570444-4.903671,1.713629-9.201906,4.245127-12.892051,7.592723-3.691915,3.349366-6.579239,7.659994-8.661086,12.932767-2.083617,5.273659-3.124541,11.284638-3.124541,18.033824,0,6.750956,1.040924,12.761935,3.124541,18.033824,2.081847,5.273659,4.969171,9.571009,8.661086,12.892936,3.690145,3.321927,7.98838,5.841033,12.892051,7.553777,4.904556,1.714514,10.256107,2.570444,16.057308,2.570444,11.599748,0,20.512213-2.570444,26.734741-7.711332,6.221643-5.141773,9.54357-11.983013,9.965781-20.52549h27.209175c-.263771,9.860449-3.058156,18.429481-8.384037,25.706209-5.326767,7.276728-12.747773,12.827436-22.265674,16.649466-9.518786,3.822916-20.605153,5.734816-33.259986,5.734816-9.333792,0-17.969208-1.265749-25.90448-3.796362-7.937042-2.531498-14.923445-6.249082-20.960979-11.152752-6.038419-4.904556-10.770372-11.283753-14.197631-19.141133-3.428144-7.85738-5.140888-16.794629-5.140888-26.814403,0-10.018004,1.712744-18.956139,5.140888-26.813518,3.427259-7.856494,8.159212-14.237462,14.197631-19.142018,6.037534-4.903671,13.023936-8.621255,20.960979-11.151867,7.935272-2.531498,16.570689-3.797247,25.90448-3.797247,18.929584,0,34.076969,4.153073,45.44127,12.458333,11.36253,8.30526,17.413341,19.365958,18.152432,33.181209h-26.971958Z" style="fill:#212427;"></path>
  <path d="M894.348067,3.892597c8.226483-2.531498,17.269063-3.797247,27.130398-3.797247,9.860449,0,18.903915,1.265749,27.130398,3.797247,8.225597,2.530613,15.423548,6.261474,21.592968,11.191699,6.170305,4.93111,10.981035,11.311192,14.435733,19.142018,3.452928,7.82994,5.180719,16.755683,5.180719,26.773687,0,10.019774-1.727791,18.943747-5.180719,26.774572-3.454698,7.830825-8.265429,14.210908-14.435733,19.141133-6.169419,4.93111-13.36737,8.661086-21.592968,11.192584-8.226483,2.530613-17.269949,3.796362-27.130398,3.796362-9.861334,0-18.903915-1.265749-27.130398-3.796362-8.225597-2.531498-15.423548-6.261474-21.592968-11.192584-6.169419-4.930225-10.968643-11.310307-14.395902-19.141133-3.428144-7.830825-5.140888-16.754798-5.140888-26.774572,0-10.018004,1.712744-18.943747,5.140888-26.773687,3.427259-7.830825,8.226483-14.210908,14.395902-19.142018,6.169419-4.930225,13.36737-8.661086,21.592968-11.191699ZM921.478465,102.05098c6.327859,0,12.088344-.855929,17.283226-2.570444,5.193111-1.712744,9.701124-4.23185,13.524925-7.553777,3.822916-3.321927,6.789017-7.619277,8.898303-12.892936,2.108401-5.271888,3.164372-11.282868,3.164372-18.033824,0-8.963803-1.858792-16.583081-5.576376-22.858717-3.717584-6.274751-8.740748-10.888096-15.067723-13.841805-6.327859-2.952824-13.737359-4.429236-22.226727-4.429236-6.327859,0-12.075952.8577-17.243394,2.570444-5.168327,1.713629-9.663063,4.245127-13.485979,7.592723-3.823801,3.349366-6.789902,7.659994-8.898303,12.932767-2.109286,5.273659-3.163487,11.284638-3.163487,18.033824,0,8.965574,1.845515,16.570689,5.536545,22.819771,3.690145,6.248197,8.700917,10.850035,15.028776,13.801974,6.327859,2.953709,13.735588,4.429236,22.225842,4.429236Z" style="fill:#212427;"></path>
  <path d="M1105.694495,3.18006h22.305505v115.63988h-25.310552l-71.18731-84.791898h-.711652v84.791898h-22.226727V3.18006h26.339084l70.080002,83.447372h.711652V3.18006Z" style="fill:#212427;"></path>
</svg>
